<?xml version="1.0" standalone="no"?>
<!DOCTYPE svg PUBLIC "-//W3C//DTD SVG 20010904//EN"
 "http://www.w3.org/TR/2001/REC-SVG-20010904/DTD/svg10.dtd">
<svg version="1.0" xmlns="http://www.w3.org/2000/svg"
 width="280.000000pt" height="280.000000pt" viewBox="0 0 280.000000 280.000000"
 preserveAspectRatio="xMidYMid meet">

<g transform="translate(0.000000,280.000000) scale(0.100000,-0.100000)"
fill="#000000" stroke="none">
<path d="M1156 2335 c-97 -17 -215 -48 -321 -85 -131 -46 -170 -68 -197 -114
-22 -40 -23 -49 -26 -312 -4 -320 -7 -311 90 -300 198 23 389 147 509 331 62
94 96 185 114 303 8 53 17 111 20 129 11 63 -31 74 -189 48z"/>
<path d="M1472 2338 c-16 -16 -15 -53 3 -166 43 -266 192 -473 421 -586 107
-52 255 -81 282 -54 9 9 12 86 12 287 l0 274 -26 44 c-19 33 -38 50 -77 68
-111 50 -320 111 -447 130 -116 18 -152 19 -168 3z"/>
<path d="M636 1392 c-16 -3 -18 -10 -12 -60 12 -111 73 -263 153 -378 21 -31
45 -66 53 -78 62 -93 284 -304 409 -390 67 -46 73 -49 88 -33 37 36 1 342 -57
495 -59 153 -153 266 -285 341 -103 59 -294 116 -349 103z"/>
<path d="M2115 1393 c-16 -2 -73 -17 -125 -34 -238 -73 -389 -216 -466 -442
-54 -159 -80 -446 -43 -470 26 -16 177 99 337 256 187 184 301 368 350 563 25
104 26 107 7 120 -10 8 -21 13 -24 13 -3 -1 -19 -4 -36 -6z"/>
</g>
</svg>
