<?xml version="1.0" encoding="utf-8"?>
<svg viewBox="0 0 203 58" fill="none" xmlns="http://www.w3.org/2000/svg">
  <path fill="#8080F2" d="m46.557 21.11-12.54-7.24a1.014 1.014 0 0 0-1.015 0l-12.54 7.24a1.015 1.015 0 0 0-.508.878v14.48c0 .362.194.697.508.879l12.54 7.24c.314.181.7.181 1.015 0l12.54-7.24c.314-.181.507-.516.507-.879v-14.48c0-.363-.193-.697-.507-.879Z" class="logo-component" transform="matrix(0.9999999999999999, 0, 0, 0.9999999999999999, 0, -7.105427357601002e-15)"/>
  <path fill="#4B32C3" d="M.904 27.705 15.888 1.638C16.432.695 17.438 0 18.526 0h29.967c1.089 0 2.094.695 2.639 1.638l14.983 26.01a3.1 3.1 0 0 1 0 3.074L51.132 56.576c-.545.942-1.55 1.424-2.639 1.424H18.526c-1.088 0-2.094-.467-2.638-1.41L.905 30.694a2.94 2.94 0 0 1 0-2.99Zm12.407 12.534c0 .384.231.738.563.93L32.96 52.18c.332.192.748.192 1.08 0l19.1-11.011c.332-.192.564-.546.564-.93V18.216c0-.383-.229-.738-.56-.93L34.057 6.277a1.084 1.084 0 0 0-1.079 0l-19.102 11.01c-.332.192-.566.547-.566.93V40.24Z" class="logo-component" transform="matrix(0.9999999999999999, 0, 0, 0.9999999999999999, 0, -7.105427357601002e-15)"/>
  <path fill="#101828" d="M86.697 43.71V14.29h18.745v4.581h-13.66v7.733h12.483v4.582H91.783v7.943h13.869v4.581H86.697ZM118.919 44.299c-2.241 0-4.231-.393-5.968-1.177-1.709-.813-3.054-1.976-4.035-3.489-.98-1.513-1.471-3.362-1.471-5.547v-1.093h5.002v1.093c0 1.933.588 3.376 1.765 4.328 1.177.953 2.746 1.43 4.707 1.43 1.99 0 3.489-.407 4.497-1.22 1.009-.812 1.513-1.863 1.513-3.152 0-.868-.238-1.569-.714-2.101-.476-.56-1.177-1.009-2.102-1.345-.896-.336-1.989-.658-3.278-.967l-1.261-.252c-1.933-.448-3.614-1.008-5.043-1.68-1.401-.701-2.48-1.598-3.236-2.69-.757-1.094-1.135-2.523-1.135-4.288 0-1.765.42-3.278 1.261-4.539.84-1.26 2.031-2.227 3.572-2.9 1.541-.672 3.348-1.009 5.422-1.009 2.073 0 3.923.35 5.548 1.051 1.625.7 2.9 1.751 3.824 3.152.953 1.401 1.429 3.153 1.429 5.254v1.387h-5.001v-1.387c0-1.205-.238-2.172-.715-2.9-.476-.729-1.148-1.26-2.017-1.597-.869-.336-1.891-.504-3.068-.504-1.737 0-3.054.336-3.951 1.008-.896.673-1.345 1.625-1.345 2.858 0 .785.196 1.457.589 2.018.42.532 1.022.98 1.807 1.345.812.336 1.821.63 3.026.882l1.261.294c2.017.449 3.782 1.023 5.296 1.723 1.513.673 2.689 1.57 3.53 2.69.869 1.121 1.303 2.578 1.303 4.371 0 1.766-.462 3.32-1.387 4.666-.897 1.345-2.172 2.395-3.825 3.152-1.625.756-3.558 1.135-5.8 1.135ZM133.1 43.71V14.29h5.085v24.839h13.786v4.581H133.1ZM154.827 43.71V22.948h4.834V43.71h-4.834Zm2.396-23.41c-.869 0-1.625-.28-2.269-.84-.617-.589-.925-1.36-.925-2.312 0-.953.308-1.71.925-2.27a3.255 3.255 0 0 1 2.269-.882c.925 0 1.681.294 2.27.882.616.56.924 1.317.924 2.27 0 .953-.308 1.723-.924 2.311-.589.56-1.345.841-2.27.841ZM164.525 43.71V22.948h4.75v2.9h.714c.364-.785 1.023-1.527 1.975-2.228.953-.7 2.396-1.05 4.329-1.05 1.598 0 3.012.364 4.245 1.092a7.435 7.435 0 0 1 2.858 3.026c.701 1.29 1.051 2.816 1.051 4.582v12.44h-4.833V31.648c0-1.681-.421-2.928-1.261-3.74-.813-.841-1.976-1.262-3.489-1.262-1.709 0-3.054.575-4.034 1.724-.981 1.12-1.471 2.732-1.471 4.833V43.71h-4.834ZM196.449 43.71c-1.345 0-2.424-.392-3.236-1.177-.785-.812-1.177-1.905-1.177-3.278V26.941h-5.422v-3.993h5.422v-6.683h4.833v6.683h5.968v3.993h-5.968v11.516c0 .84.393 1.26 1.177 1.26h4.161v3.993h-5.758Z" class="logo-component" transform="matrix(0.9999999999999999, 0, 0, 0.9999999999999999, 0, -7.105427357601002e-15)"/>
  <path style="fill: rgba(255, 0, 0, 0); stroke: rgb(255, 0, 0);" d="M 154.868 47.919 L 157.885 45.634 L 160.348 47.894 M 160.047 47.892 L 163.064 45.607 L 165.527 47.866 M 144.504 48.002 L 147.521 45.716 L 149.984 47.976 M 149.683 47.974 L 152.701 45.689 L 155.164 47.949 M 175.708 47.723 L 178.725 45.437 L 181.189 47.697 M 180.888 47.696 L 183.904 45.41 L 186.369 47.67 M 165.345 47.805 L 168.362 45.52 L 170.825 47.78 M 170.524 47.778 L 173.542 45.493 L 176.005 47.752 M 196.261 47.539 L 199.278 45.254 L 201.741 47.513 M 191.078 47.595 L 194.093 45.309 L 196.557 47.569 M 185.898 47.622 L 188.914 45.336 L 191.377 47.596 M 98.058 48.308 L 101.074 46.023 L 103.538 48.282 M 103.237 48.281 L 106.253 45.996 L 108.717 48.255 M 87.694 48.39 L 90.71 46.105 L 93.174 48.364 M 92.873 48.363 L 95.89 46.077 L 98.354 48.337 M 118.898 48.112 L 121.915 45.826 L 124.378 48.086 M 124.078 48.084 L 127.094 45.799 L 129.558 48.059 M 108.535 48.194 L 111.551 45.909 L 114.015 48.168 M 113.714 48.167 L 116.731 45.881 L 119.194 48.141 M 139.451 47.928 L 142.468 45.642 L 144.931 47.902 M 134.267 47.983 L 137.283 45.697 L 139.747 47.957 M 129.087 48.01 L 132.104 45.725 L 134.567 47.985" transform="matrix(0.9999999999999999, 0, 0, 0.9999999999999999, 0, -7.105427357601002e-15)"/>
</svg>