<?xml version="1.0" standalone="no"?>
<!DOCTYPE svg PUBLIC "-//W3C//DTD SVG 20010904//EN"
 "http://www.w3.org/TR/2001/REC-SVG-20010904/DTD/svg10.dtd">
<svg version="1.0" xmlns="http://www.w3.org/2000/svg"
 width="750.000000pt" height="1000.000000pt" viewBox="0 0 750.000000 1000.000000"
 preserveAspectRatio="xMidYMid meet">

<g transform="translate(0.000000,1000.000000) scale(0.100000,-0.100000)"
fill="#000000" stroke="none">
<path d="M3735 8574 c-11 -7 -284 -163 -606 -346 -323 -183 -1018 -578 -1546
-878 l-960 -545 -6 -695 c-4 -382 -7 -1191 -7 -1796 l0 -1102 148 -84 c81 -47
467 -268 857 -493 391 -225 1029 -592 1418 -815 l709 -407 91 52 c51 29 601
342 1222 695 622 353 1249 710 1395 793 146 83 301 171 346 196 l81 45 6 756
c4 415 7 1223 7 1796 l0 1041 -432 248 c-238 137 -516 296 -618 355 -156 90
-636 366 -1875 1078 -110 63 -202 116 -205 117 -3 2 -14 -3 -25 -11z m-2350
-3169 c203 -53 318 -221 338 -492 l6 -73 -415 0 -414 0 0 -42 c1 -145 86 -285
208 -341 67 -31 226 -32 293 -1 69 32 123 86 153 154 l27 60 65 0 c78 0 80 -6
29 -106 -87 -170 -213 -244 -420 -244 -161 0 -266 40 -357 138 -83 88 -123
195 -134 359 -21 283 140 537 373 592 61 14 184 12 248 -4z m1885 5 c120 -23
238 -107 294 -209 90 -166 93 -460 7 -632 -83 -167 -219 -249 -410 -249 -142
0 -258 46 -340 135 l-41 44 -2 -282 -3 -282 -62 -3 -63 -3 0 731 0 730 65 0
65 0 0 -87 0 -87 30 41 c66 90 218 162 341 163 37 0 90 -5 119 -10z m930 -54
l0 -64 -57 -7 c-141 -17 -226 -92 -274 -240 -8 -27 -14 -144 -18 -370 l-6
-330 -60 0 -60 0 -3 523 -2 522 65 0 65 0 0 -97 0 -98 19 41 c51 112 158 180
289 183 l42 1 0 -64z m555 49 c162 -43 269 -157 314 -338 10 -40 21 -107 25
-149 l7 -78 -417 0 -417 0 6 -71 c12 -137 92 -260 205 -312 38 -18 66 -22 147
-22 89 0 106 3 157 28 67 33 131 101 151 160 l14 42 71 3 c40 2 72 0 72 -4 0
-30 -86 -177 -130 -221 -87 -88 -181 -122 -342 -123 -246 0 -410 129 -469 370
-17 72 -18 260 0 330 49 197 177 338 349 385 65 18 187 18 257 0z m895 -1
c145 -34 234 -129 263 -281 l7 -33 -65 0 c-62 0 -65 1 -71 28 -19 78 -80 148
-151 173 -22 8 -78 14 -133 14 -78 -1 -103 -5 -136 -22 -77 -41 -113 -106
-100 -178 16 -81 79 -118 300 -174 183 -47 260 -79 309 -129 49 -50 69 -103
69 -183 2 -186 -158 -298 -423 -299 -162 0 -267 45 -346 148 -33 43 -79 171
-70 195 3 8 23 11 65 9 l60 -4 21 -56 c44 -122 116 -171 261 -180 103 -5 168
8 222 45 73 50 100 158 55 224 -34 50 -112 84 -292 123 -298 67 -376 136 -363
325 12 170 148 268 373 270 44 0 109 -6 145 -15z m905 -14 c106 -41 181 -137
210 -267 l7 -33 -66 0 -65 0 -7 35 c-19 102 -113 172 -246 182 -175 13 -296
-77 -272 -203 15 -81 69 -112 306 -174 193 -51 257 -80 312 -141 89 -99 86
-245 -7 -346 -77 -84 -190 -123 -353 -123 -233 0 -377 105 -412 301 l-9 50 64
-3 65 -3 18 -52 c25 -72 65 -120 124 -151 47 -24 61 -27 166 -27 101 0 121 3
163 24 67 33 100 79 105 149 8 113 -58 160 -298 213 -228 50 -298 84 -348 168
-24 40 -27 57 -27 131 0 75 3 91 29 138 41 74 110 122 211 149 78 20 256 11
330 -17z m-4545 -205 c79 -113 145 -205 146 -205 0 0 68 92 150 205 l149 205
78 0 c42 0 77 -2 77 -4 0 -2 -85 -115 -189 -251 l-189 -248 41 -56 c22 -31
112 -152 199 -269 87 -117 158 -215 158 -217 0 -3 -33 -5 -73 -5 l-74 0 -159
225 c-87 123 -162 224 -165 225 -3 0 -66 -82 -139 -182 -73 -101 -149 -202
-167 -225 l-34 -43 -70 0 c-38 0 -69 3 -69 7 0 4 87 122 193 263 106 140 197
261 201 267 6 11 -116 182 -342 481 l-24 32 78 0 79 -1 145 -204z"/>
<path d="M1160 5297 c-118 -33 -202 -125 -244 -266 -30 -100 -63 -91 330 -91
l347 0 -7 61 c-13 125 -87 234 -191 280 -61 27 -171 34 -235 16z"/>
<path d="M3054 5301 c-58 -14 -122 -52 -159 -93 -158 -174 -153 -520 8 -682
63 -62 125 -89 222 -94 65 -3 91 0 139 18 152 58 235 209 236 427 0 158 -38
261 -126 342 -83 76 -209 108 -320 82z"/>
<path d="M4512 5292 c-121 -44 -215 -166 -238 -312 l-7 -40 348 0 348 0 -7 61
c-13 125 -87 234 -191 280 -70 31 -182 36 -253 11z"/>
</g>
</svg>
