<svg width="2142" height="700" viewBox="0 0 2142 700" fill="none" xmlns="http://www.w3.org/2000/svg">
<g clip-path="url(#clip0_383_11)">
<path d="M725.088 182.88H912.46V242.433H796.008V325.192H912.46V383.43H796.008V489.396H725.088V182.88ZM950.985 278.335H1017.97V322.562C1021.47 307.364 1028.63 295.697 1039.42 287.53C1050.49 279.056 1062.78 274.835 1076.2 274.835C1083.21 274.835 1089.05 275.429 1093.7 276.585V338.768C1087.02 337.962 1080.3 337.527 1073.57 337.453C1055.18 337.453 1041.33 343.424 1031.98 355.399C1022.66 367.076 1017.97 384.586 1017.97 407.952V489.396H951.016V278.335H950.985ZM1199.45 495.091C1179.02 495.091 1161.21 490.265 1146.03 480.635C1131.15 471.005 1119.31 457.333 1111.89 441.223C1104.01 424.306 1100.04 405.162 1100.04 383.865C1100.04 362.844 1104.16 343.859 1112.32 326.942C1119.98 310.599 1132.13 296.779 1147.35 287.096C1162.8 277.465 1180.46 272.639 1200.33 272.639C1215.2 272.639 1228.5 275.864 1240.17 282.28C1251.83 288.718 1260.59 297.479 1266.43 308.552V278.335H1332.97V489.396H1266.43V459.614C1260.59 470.124 1251.54 478.726 1239.29 485.45C1227.03 491.952 1213.33 495.261 1199.45 495.091ZM1218.71 439.473C1234.76 439.473 1247.16 434.223 1255.92 423.712C1264.68 413.202 1269.06 399.912 1269.06 383.865C1269.06 368.105 1264.68 354.964 1255.92 344.453C1247.16 333.943 1234.76 328.692 1218.71 328.692C1203.52 328.692 1191.28 333.794 1181.94 344.018C1172.89 354.243 1168.37 367.511 1168.37 383.865C1168.37 400.22 1172.89 413.636 1181.94 424.147C1191.28 434.371 1203.54 439.473 1218.71 439.473ZM1379.82 278.335H1446.8V308.986C1451.49 298.168 1459.06 289.408 1469.56 282.715C1480.38 276.023 1492.92 272.639 1507.22 272.639C1540.49 272.639 1562.54 285.621 1573.32 311.617C1579.26 299.833 1588.55 290.086 1600.03 283.596C1612.31 276.203 1626.41 272.417 1640.74 272.639C1690.65 272.639 1715.6 301.233 1715.6 358.464V489.396H1648.18V370.724C1648.18 356.438 1645.55 345.927 1640.31 339.203C1635.05 332.5 1627.17 329.127 1616.66 329.127C1605.28 329.127 1596.52 333.073 1590.39 340.953C1584.26 348.547 1581.2 361.815 1581.2 380.8V489.396H1513.78V370.289C1513.78 355.992 1511.16 345.62 1505.9 339.203C1500.96 332.5 1493.21 329.127 1482.72 329.127C1471.03 329.127 1462.13 333.073 1456 340.953C1449.87 348.547 1446.8 361.815 1446.8 380.8V489.396H1379.84V278.335H1379.82ZM1967.24 372.92C1967.24 381.956 1966.64 391.746 1965.45 402.256H1809.63C1810.22 415.98 1814.88 426.47 1823.64 433.788C1832.4 441.074 1844.24 444.733 1859.1 444.733C1879.83 444.733 1892.97 438.444 1898.5 425.897H1964.17C1960.95 446.632 1949.57 463.4 1930.02 476.255C1910.76 488.802 1887.11 495.091 1859.1 495.091C1822.92 495.091 1794.46 485.302 1773.72 465.744C1753.3 446.176 1743.08 418.897 1743.08 383.865C1743.08 361.094 1747.74 341.388 1757.09 324.747C1766.11 308.127 1780.02 294.679 1796.93 286.215C1814.16 277.179 1834.15 272.639 1856.93 272.639C1878.51 272.639 1897.62 276.871 1914.26 285.346C1931.18 293.82 1944.18 305.635 1953.22 320.812C1962.57 336.011 1967.24 353.373 1967.24 372.92ZM1901.1 360.659C1900.81 346.649 1896.88 335.979 1889.28 328.692C1881.7 321.406 1870.74 317.747 1856.45 317.747C1842.15 317.747 1830.77 321.682 1822.3 329.573C1814.14 337.167 1809.91 347.518 1809.6 360.659H1901.1ZM1996.77 278.335H2063.75V322.562C2067.25 307.364 2074.41 295.697 2085.21 287.53C2095.68 279.279 2108.64 274.803 2121.98 274.835C2128.98 274.835 2134.83 275.429 2139.49 276.585V338.768C2132.81 337.962 2126.08 337.527 2119.35 337.453C2100.96 337.453 2087.11 343.424 2077.76 355.399C2068.41 367.076 2063.75 384.586 2063.75 407.952V489.396H1996.77V278.335Z" fill="black"/>
<path d="M-1.33496 0H465.213V233.265H231.939L-1.33496 0Z" fill="black"/>
<path d="M-1.33496 233.264H231.939L465.213 466.538H-1.33496V233.264Z" fill="url(#paint0_linear_383_11)"/>
<path d="M-1.33496 466.539H231.939V699.813L-1.33496 466.539Z" fill="url(#paint1_linear_383_11)"/>
</g>
<defs>
<linearGradient id="paint0_linear_383_11" x1="230.779" y1="233.264" x2="231.359" y2="466.543" gradientUnits="userSpaceOnUse">
<stop stop-color="#00AAFF"/>
<stop offset="1" stop-color="#0099FF"/>
</linearGradient>
<linearGradient id="paint1_linear_383_11" x1="114.722" y1="466.539" x2="115.882" y2="699.813" gradientUnits="userSpaceOnUse">
<stop stop-color="#0033FF"/>
<stop offset="1" stop-color="#0055FF"/>
</linearGradient>
<clipPath id="clip0_383_11">
<rect width="2142" height="700" fill="white"/>
</clipPath>
</defs>
</svg>
