<?xml version="1.0" standalone="no"?>
<!DOCTYPE svg PUBLIC "-//W3C//DTD SVG 20010904//EN"
 "http://www.w3.org/TR/2001/REC-SVG-20010904/DTD/svg10.dtd">
<svg version="1.0" xmlns="http://www.w3.org/2000/svg"
 width="800.000000pt" height="800.000000pt" viewBox="0 0 800.000000 800.000000"
 preserveAspectRatio="xMidYMid meet">

<g transform="translate(0.000000,800.000000) scale(0.100000,-0.100000)"
fill="#000000" stroke="none">
<path d="M3618 7720 c-275 -20 -543 -77 -828 -175 -378 -130 -739 -317 -1043
-538 -479 -351 -886 -828 -1156 -1357 -466 -912 -545 -1969 -219 -2944 173
-518 442 -973 821 -1388 390 -426 1029 -849 1521 -1007 123 -40 168 -40 228
-2 84 54 83 44 86 475 l3 379 -23 -7 c-13 -3 -133 -9 -268 -12 -197 -5 -265
-3 -347 10 -197 30 -356 98 -447 192 -54 55 -141 186 -231 349 -128 232 -209
334 -409 514 -69 62 -126 121 -126 131 0 34 74 78 148 87 94 11 231 -34 348
-115 67 -46 137 -116 250 -252 110 -133 278 -299 347 -344 149 -97 369 -121
597 -66 168 41 166 38 226 210 43 124 71 181 136 278 27 41 48 75 46 77 -1 2
-84 20 -183 40 -645 130 -983 321 -1232 694 -208 312 -276 588 -276 1116 -1
495 42 643 276 968 70 97 81 132 61 195 -28 93 -38 281 -25 476 13 210 29 297
68 369 41 76 73 90 193 83 188 -10 431 -106 778 -309 l114 -66 132 29 c237 53
436 70 826 70 410 0 608 -18 827 -72 l122 -30 138 82 c364 216 731 341 880
301 49 -13 67 -40 102 -155 49 -157 67 -496 35 -661 -21 -111 -27 -170 -21
-197 4 -13 44 -81 91 -151 202 -305 293 -678 265 -1094 -21 -316 -117 -657
-247 -880 -136 -232 -351 -426 -625 -563 -201 -100 -344 -145 -656 -206 -95
-18 -175 -35 -176 -36 -2 -2 43 -84 100 -184 l103 -181 11 -639 c6 -351 11
-686 11 -744 l0 -105 58 -37 c88 -57 109 -62 182 -43 208 54 620 256 920 452
548 358 1026 912 1321 1528 536 1122 495 2428 -111 3511 -410 732 -1077 1335
-1840 1662 -479 206 -847 277 -1485 286 -154 3 -333 1 -397 -4z"/>
</g>
</svg>
